#!OML:ASF E:/inclinewalkrobotboard/Project1/Captureday1/Session1/subject1.ASF
:FULLY-SPECIFIED
:DEGREES
226
root 0 0 0 1.0526594155809574 -3.6800612088159927 1.8628732615132801
lowerback 11.924760682699887 0.8570958310981892 -0.05819354348160663
upperback -4.224081106080344 1.0868785039682825 -0.5564320084794689
thorax -11.297762935283576 0.49623793686500545 -0.8001935170945265
lowerneck -5.665787048137476 1.445948912452509 4.565892176757636
upperneck 18.08009629190469 2.882205595970509 -8.319672338549488
head 6.587925307157425 1.0475480244330084 -3.221988371140919
rclavicle -8.950956481734163E-16 -3.439472952412945E-16
rhumerus 20.160712701318 14.7105266705633 -48.13978705774228
rradius 72.54544676095925
rwrist 26.736868767863843
rhand -34.75545481621941 -57.39252789402602
rfingers 7.125020000000038
rthumb -7.916774177400957 -87.30728548189073
lclavicle 9.041954714962749E-16 -1.7502676351905347E-15
lhumerus 20.851689905723795 -12.752377782439893 45.28103782125309
lradius 69.94663837519599
lwrist -22.275604900479532
lhand -44.77453445932934 -69.72283922847677
lfingers 7.125020000000029
lthumb -17.56593973765461 -40.52459577707669
rfemur -24.894431024736214 -2.212288635351425 17.20838773340376
rtibia 54.048797582280564
rfoot -29.07949259065974 -16.732894266138775
rtoes -17.67187201721178
lfemur -26.676787560207035 2.4059857462460776 -18.294734951523733
ltibia 54.16616307199087
lfoot -31.06089148558955 -3.528708331936713
ltoes -19.632055365363367
227
root 0 0 0 1.0535136316731466 -3.6784720616165565 1.8630686211075271
lowerback 11.924846855357002 0.8572450265236845 -0.05847259196134327
upperback -4.224571142172476 1.0870138403824383 -0.5567291072701344
thorax -11.298366142940768 0.4963078127278304 -0.8003997026688148
lowerneck -5.668427313226917 1.446270807156316 4.565558072061695
upperneck 18.081640336397257 2.8825077054756645 -8.31853498064407
head 6.588870079521465 1.0476724950689944 -3.2215461363372357
rclavicle -9.067590873280044E-16 -3.349210688174419E-16
rhumerus 20.161004210696166 14.709888740827509 -48.139533914230086
rradius 72.54557578940572
rwrist 26.73751546876035
rhand -34.75650344765309 -57.39417235978275
rfingers 7.125020000000038
rthumb -7.917835274724593 -87.30827818951225
lclavicle 8.95641028667992E-16 -1.74390708566004E-15
lhumerus 20.85183290827285 -12.752326101386076 45.28184895679296
lradius 69.946602439515
lwrist -22.275085646851537
lhand -44.77510460029647 -69.72486466781336
lfingers 7.1250200000000286
lthumb -17.566572185516613 -40.52673391816517
rfemur -24.893720511336145 -2.2117880085620136 17.207458162099485
rtibia 54.04905257131429
rfoot -29.07887192686058 -16.733931655143802
rtoes -17.67245268779551
lfemur -26.6785565026531 2.4062292448994924 -18.294785615314115
ltibia 54.16359751255446
lfoot -31.063046371677657 -3.525967520932605
ltoes -19.6324541924331
228
root 0 0 0 1.0531130465453322 -3.6792390800612944 1.8629795005885064
lowerback 11.924765932165203 0.8571767716864117 -0.05838043199756976
upperback -4.224365745237754 1.086948872078416 -0.556602612113761
thorax -11.298093712454584 0.49627503669189516 -0.80029306951346
lowerneck -5.667400073598147 1.4461803676704772 4.5657245116292575
upperneck 18.081091564229787 2.882457046299634 -8.319015722575681
head 6.588520449589812 1.0476497718154216 -3.2217304099394957
rclavicle -8.970703747572881E-16 -3.4402285751474795E-16
rhumerus 20.160270022867614 14.7099774695183 -48.14000232882427
rradius 72.54513697463157
rwrist 26.737021282740585
rhand -34.75632396106202 -57.39371277699376
rfingers 7.125020000000038
rthumb -7.917602510311854 -87.30846382745393
lclavicle 9.023779144391243E-16 -1.750417197542015E-15
lhumerus 20.85135923474939 -12.751738154617184 45.28167448507689
lradius 69.94613932884681
lwrist -22.275471955344653
lhand -44.774839354376944 -69.72482855620287
lfingers 7.125020000000029
lthumb -17.566230888589924 -40.52660411508671
rfemur -24.89443099528514 -2.2122641314839084 17.208278880536632
rtibia 54.04865500912844
rfoot -29.07957259909562 -16.732968286383446
rtoes -17.67209686423433
lfemur -26.67702338904888 2.4058625252571924 -18.29477669250944
ltibia 54.16505166523902
lfoot -31.06161948724637 -3.5283426005615826
ltoes -19.632134170525404
229
root 0 0 0 1.0529875037309115 -3.6794587248383164 1.8629521991095066
lowerback 11.924767206416032 0.8571544926933121 -0.058328753098022934
upperback -4.224288781437178 1.0869294342586044 -0.5565562006082779
thorax -11.29800576625733 0.4962647469386409 -0.8002665870279004
lowerneck -5.666947260238212 1.4461151535130727 4.565771023033229
upperneck 18.080812876510986 2.882385218106294 -8.319198676113954
head 6.588353527876267 1.047620731576329 -3.221802378566463
rclavicle -8.966251321236625E-16 -3.433491453651571E-16
rhumerus 20.16027551381057 14.710030004974419 -48.13999523498375
rradius 72.54515525398853
rwrist 26.73696972288346
rhand -34.75620038877132 -57.39349045329122
rfingers 7.125020000000038
rthumb -7.9174872447071705 -87.30825797435645
lclavicle 9.02269415537558E-16 -1.749863133238243E-15
lhumerus 20.85138076211435 -12.751868529868773 45.28157513189281
lradius 69.94627043646776
lwrist -22.275519303182122
lhand -44.77478324795966 -69.72434064343128
lfingers 7.125020000000029
lthumb -17.566178603075404 -40.52612320906912
rfemur -24.89440047144733 -2.2122880222765904 17.208361476506408
rtibia 54.04871013061455
rfoot -29.079481352045384 -16.732921735710967
rtoes -17.672004399770174
lfemur -26.677049587146982 2.4058529128713184 -18.294748253898184
ltibia 54.166009610662165
lfoot -31.06118101249832 -3.5287607997380768
ltoes -19.631783563944126
230
root 0 0 0 1.0527719344056796 -3.679855368732984 1.8628991859205595
lowerback 11.924764034536938 0.8571156048319709 -0.05824029287373225
upperback -4.224152465730535 1.086895575734285 -0.5564738615758784
thorax -11.297847030764542 0.4962469105507178 -0.8002176427697394
lowerneck -5.666182044957609 1.4460049299304296 4.565847414373936
upperneck 18.080340274833734 2.882265530878484 -8.319507057664623
head 6.588071078034264 1.047572358793739 -3.2219231971184437
rclavicle -8.958365398302012E-16 -3.438056911537107E-16
rhumerus 20.160569448799617 14.710354334821488 -48.139851757555455
rradius 72.54535138095409
rwrist 26.736914462458362
rhand -34.75572893838257 -57.3929095615139
rfingers 7.125020000000038
rthumb -7.917037176493315 -87.30766698386648
lclavicle 9.033514611173963E-16 -1.7502113518103694E-15
lhumerus 20.851559183238585 -12.752150499941177 45.281245829698065
lradius 69.94647948546822
lwrist -22.27558179880751
lhand -44.774633953004376 -69.72347214666199
lfingers 7.125020000000029
lthumb -17.566036687753943 -40.525237368575745
rfemur -24.89441590174995 -2.212287478225318 17.208383650203967
rtibia 54.048780995131
rfoot -29.079468706358302 -16.732900434621733
rtoes -17.671885763927776
lfemur -26.67693398838824 2.405955163934412 -18.294743082193605
ltibia 54.166209207222956
lfoot -31.06094183488409 -3.5287576776413836
ltoes -19.631834135688976
231
root 0 0 0 1.0526185884273236 -3.6801358854485913 1.862864256446977
lowerback 11.924758911078099 0.8570886996823714 -0.058176763639725154
upperback -4.2240554348870205 1.0868723157625502 -0.5564170522403482
thorax -11.297732352348136 0.49623469300721185 -0.8001848707296737
lowerneck -5.665644625032126 1.4459290301512504 4.5659091112136645
upperneck 18.080009264139473 2.882184540760072 -8.319732691305092
head 6.587873068962695 1.0475394651485899 -3.2220122113095164
rclavicle -8.947524826127996E-16 -3.4397211228139536E-16
rhumerus 20.160771563919276 14.710598202623867 -48.13976438067728
rradius 72.54548663665753
rwrist 26.736847016836755
rhand -34.755345806588565 -57.392371994802794
rfingers 7.125020000000038
rthumb -7.916669448355026 -87.30712867984492
lclavicle 9.045959472427297E-16 -1.7502596509051601E-15
lhumerus 20.85174594477293 -12.752476164708298 45.280947968536985
lradius 69.94670579297372
lwrist -22.27561410703151
lhand -44.77448988019156 -69.72256000624199
lfingers 7.125020000000029
lthumb -17.565896205850564 -40.5243117724877
rfemur -24.894432951387525 -2.212287901950424 17.208388748060763
rtibia 54.048796290679064
rfoot -29.07949852928244 -16.732889103656294
rtoes -17.671876922573915
lfemur -26.676690801843662 2.405988872215726 -18.294729473247582
ltibia 54.1661084596537
lfoot -31.060885658645038 -3.528690895791635
ltoes -19.63220380007577
232
root 0 0 0 1.0525046844563741 -3.680344206407451 1.8628388348340348
lowerback 11.924754611052728 0.8570687550899512 -0.058129549703022254
upperback -4.223983430354203 1.0868550533458687 -0.5563750715114943
thorax -11.29764691997592 0.49622563181327095 -0.800160729429328
lowerneck -5.66524522272827 1.4458728040077737 4.565955807393674
upperneck 18.079764157674184 2.8821246565604994 -8.319901160334103
head 6.587726224840343 1.0475151366409259 -3.222078748838415
rclavicle -8.938782016412513E-16 -3.4402408361342527E-16
rhumerus 20.160933605554384 14.710794030142171 -48.13970243397123
rradius 72.54559644443506
rwrist 26.7367879108419
rhand -34.7550499639488 -57.391950642445394
rfingers 7.125020000000038
rthumb -7.916385331717429 -87.30670472449368
lclavicle 9.056105868986533E-16 -1.7502347781618424E-15
lhumerus 20.851892967785233 -12.752736926498645 45.28071091055522
lradius 69.94688402288557
lwrist -22.275638009827155
lhand -44.774371821710474 -69.72181833559986
lfingers 7.125020000000029
lthumb -17.565780860828315 -40.523558151088636
rfemur -24.894440983176708 -2.212287004165332 17.20839188683697
rtibia 54.048796667145844
rfoot -29.079517103659477 -16.73287736003602
rtoes -17.67188613376951
lfemur -26.676452939186095 2.4060015867335434 -18.294715623630484
ltibia 54.16596737707025
lfoot -31.06087031951482 -3.5286340714719735
ltoes -19.63257956786755
233
root 0 0 0 1.0524120552170644 -3.6805136979540123 1.8628183226799937
lowerback 11.92475070065774 0.8570525650625905 -0.05809139641806335
upperback -4.223925069451002 1.0868410148689087 -0.5563410787153773
thorax -11.297577456447993 0.49621827143573544 -0.8001410980423137
lowerneck -5.664921808906994 1.4458275618582204 4.565994139278358
upperneck 18.0795662367869 2.882076693929444 -8.320038118972349
head 6.587607503495233 1.0474956403070501 -3.2221328484123455
rclavicle -8.931084302882187E-16 -3.4408794926494494E-16
rhumerus 20.161066747247137 14.710955859933737 -48.13965136962817
rradius 72.54568644636007
rwrist 26.736738569407983
rhand -34.75480362267485 -57.39159844136236
rfingers 7.125020000000038
rthumb -7.916148652926285 -87.3063504892053
lclavicle 9.065059989139461E-16 -1.7502229796466322E-15
lhumerus 20.852018623771592 -12.752958040566098 45.28050913266756
lradius 69.94703534485036
lwrist -22.275658454468484
lhand -44.77427143949337 -69.72119027437608
lfingers 7.125020000000029
lthumb -17.56568283552832 -40.52291949048305
rfemur -24.894446151271147 -2.2122854507618896 17.208393894178442
rtibia 54.04879457259275
rfoot -29.07953137038984 -16.732866321604607
rtoes -17.671897013184378
lfemur -26.676240065532816 2.4060095058699367 -18.294703987969815
ltibia 54.16584073202121
lfoot -31.060860144944414 -3.5285905447856853
ltoes -19.632909905135545
